<mxfile host="app.diagrams.net" agent="Mozilla/5.0 (Macintosh; Intel Mac OS X 10_15_7) AppleWebKit/537.36 (KHTML, like Gecko) Chrome/109.0.0.0 Safari/537.36" version="24.7.6">
  <diagram name="第 1 页" id="3ezKA8o1Gz_NPELWPCR8">
    <mxGraphModel dx="1593" dy="742" grid="1" gridSize="10" guides="1" tooltips="1" connect="1" arrows="1" fold="1" page="1" pageScale="1" pageWidth="827" pageHeight="1169" math="0" shadow="0">
      <root>
        <mxCell id="0" />
        <mxCell id="1" parent="0" />
        <mxCell id="CZnygBfrqToYUIKpiiIy-8" value="A场景提报任务" style="rounded=0;whiteSpace=wrap;html=1;shadow=1;" vertex="1" parent="1">
          <mxGeometry x="150" y="400" width="120" height="60" as="geometry" />
        </mxCell>
        <mxCell id="CZnygBfrqToYUIKpiiIy-10" value="B场景提报任务" style="rounded=0;whiteSpace=wrap;html=1;shadow=1;" vertex="1" parent="1">
          <mxGeometry x="150" y="490" width="120" height="60" as="geometry" />
        </mxCell>
        <mxCell id="CZnygBfrqToYUIKpiiIy-11" value="C场景提报任务" style="rounded=0;whiteSpace=wrap;html=1;shadow=1;" vertex="1" parent="1">
          <mxGeometry x="150" y="575" width="120" height="60" as="geometry" />
        </mxCell>
        <mxCell id="CZnygBfrqToYUIKpiiIy-12" value="发起数据查询" style="rounded=0;whiteSpace=wrap;html=1;" vertex="1" parent="1">
          <mxGeometry x="380" y="480" width="120" height="60" as="geometry" />
        </mxCell>
        <mxCell id="CZnygBfrqToYUIKpiiIy-13" value="" style="endArrow=none;dashed=1;html=1;dashPattern=1 3;strokeWidth=2;rounded=0;" edge="1" parent="1">
          <mxGeometry width="50" height="50" relative="1" as="geometry">
            <mxPoint x="50" y="360" as="sourcePoint" />
            <mxPoint x="810" y="360" as="targetPoint" />
          </mxGeometry>
        </mxCell>
        <mxCell id="CZnygBfrqToYUIKpiiIy-14" value="请求成功之后" style="text;html=1;align=center;verticalAlign=middle;resizable=0;points=[];autosize=1;strokeColor=none;fillColor=none;" vertex="1" parent="1">
          <mxGeometry x="370" y="320" width="100" height="30" as="geometry" />
        </mxCell>
        <mxCell id="CZnygBfrqToYUIKpiiIy-15" value="" style="endArrow=classic;html=1;rounded=0;" edge="1" parent="1">
          <mxGeometry width="50" height="50" relative="1" as="geometry">
            <mxPoint x="310" y="330" as="sourcePoint" />
            <mxPoint x="310" y="380" as="targetPoint" />
          </mxGeometry>
        </mxCell>
        <mxCell id="CZnygBfrqToYUIKpiiIy-16" value="" style="endArrow=classic;html=1;rounded=0;" edge="1" parent="1">
          <mxGeometry width="50" height="50" relative="1" as="geometry">
            <mxPoint x="570" y="330" as="sourcePoint" />
            <mxPoint x="570" y="380" as="targetPoint" />
          </mxGeometry>
        </mxCell>
        <mxCell id="CZnygBfrqToYUIKpiiIy-18" value="" style="shape=flexArrow;endArrow=classic;html=1;rounded=0;" edge="1" parent="1">
          <mxGeometry width="50" height="50" relative="1" as="geometry">
            <mxPoint x="300" y="514.5" as="sourcePoint" />
            <mxPoint x="350" y="514.5" as="targetPoint" />
          </mxGeometry>
        </mxCell>
        <mxCell id="CZnygBfrqToYUIKpiiIy-20" value="" style="shape=flexArrow;endArrow=classic;html=1;rounded=0;" edge="1" parent="1">
          <mxGeometry width="50" height="50" relative="1" as="geometry">
            <mxPoint x="510" y="514.5" as="sourcePoint" />
            <mxPoint x="560" y="514.5" as="targetPoint" />
          </mxGeometry>
        </mxCell>
        <mxCell id="CZnygBfrqToYUIKpiiIy-22" value="A场景提报任务" style="rounded=0;whiteSpace=wrap;html=1;" vertex="1" parent="1">
          <mxGeometry x="160" y="220" width="120" height="60" as="geometry" />
        </mxCell>
        <mxCell id="CZnygBfrqToYUIKpiiIy-23" value="A场景提报任务" style="rounded=0;whiteSpace=wrap;html=1;" vertex="1" parent="1">
          <mxGeometry x="380" y="220" width="120" height="60" as="geometry" />
        </mxCell>
        <mxCell id="CZnygBfrqToYUIKpiiIy-24" value="" style="shape=flexArrow;endArrow=classic;html=1;rounded=0;" edge="1" parent="1">
          <mxGeometry width="50" height="50" relative="1" as="geometry">
            <mxPoint x="300" y="246" as="sourcePoint" />
            <mxPoint x="350" y="246" as="targetPoint" />
          </mxGeometry>
        </mxCell>
        <mxCell id="CZnygBfrqToYUIKpiiIy-25" value="A场景请求成功" style="rounded=0;whiteSpace=wrap;html=1;" vertex="1" parent="1">
          <mxGeometry x="600" y="220" width="120" height="60" as="geometry" />
        </mxCell>
        <mxCell id="CZnygBfrqToYUIKpiiIy-26" value="" style="shape=flexArrow;endArrow=classic;html=1;rounded=0;width=9;endSize=7.33;" edge="1" parent="1">
          <mxGeometry width="50" height="50" relative="1" as="geometry">
            <mxPoint x="520" y="249.5" as="sourcePoint" />
            <mxPoint x="570" y="249.5" as="targetPoint" />
          </mxGeometry>
        </mxCell>
        <mxCell id="CZnygBfrqToYUIKpiiIy-27" value="" style="rounded=0;whiteSpace=wrap;html=1;" vertex="1" parent="1">
          <mxGeometry x="150" y="390" width="140" height="270" as="geometry" />
        </mxCell>
        <mxCell id="CZnygBfrqToYUIKpiiIy-28" value="A场景提报任务" style="rounded=0;whiteSpace=wrap;html=1;shadow=1;" vertex="1" parent="1">
          <mxGeometry x="160" y="410" width="120" height="60" as="geometry" />
        </mxCell>
        <mxCell id="CZnygBfrqToYUIKpiiIy-29" value="B场景提报任务" style="rounded=0;whiteSpace=wrap;html=1;shadow=1;" vertex="1" parent="1">
          <mxGeometry x="160" y="500" width="120" height="60" as="geometry" />
        </mxCell>
        <mxCell id="CZnygBfrqToYUIKpiiIy-30" value="C场景提报任务" style="rounded=0;whiteSpace=wrap;html=1;shadow=1;" vertex="1" parent="1">
          <mxGeometry x="160" y="585" width="120" height="60" as="geometry" />
        </mxCell>
        <mxCell id="CZnygBfrqToYUIKpiiIy-31" value="发起数据查询" style="rounded=0;whiteSpace=wrap;html=1;" vertex="1" parent="1">
          <mxGeometry x="390" y="490" width="120" height="60" as="geometry" />
        </mxCell>
        <mxCell id="CZnygBfrqToYUIKpiiIy-36" value="资源来源归于场景A" style="rounded=0;whiteSpace=wrap;html=1;" vertex="1" parent="1">
          <mxGeometry x="580" y="490" width="120" height="60" as="geometry" />
        </mxCell>
        <mxCell id="CZnygBfrqToYUIKpiiIy-38" value="" style="endArrow=none;dashed=1;html=1;dashPattern=1 3;strokeWidth=2;rounded=0;" edge="1" parent="1">
          <mxGeometry width="50" height="50" relative="1" as="geometry">
            <mxPoint x="840" y="360" as="sourcePoint" />
            <mxPoint x="1600" y="360" as="targetPoint" />
          </mxGeometry>
        </mxCell>
        <mxCell id="CZnygBfrqToYUIKpiiIy-40" value="A场景提报任务" style="rounded=0;whiteSpace=wrap;html=1;" vertex="1" parent="1">
          <mxGeometry x="950" y="220" width="120" height="60" as="geometry" />
        </mxCell>
        <mxCell id="CZnygBfrqToYUIKpiiIy-41" value="A场景提报任务" style="rounded=0;whiteSpace=wrap;html=1;" vertex="1" parent="1">
          <mxGeometry x="1170" y="220" width="120" height="60" as="geometry" />
        </mxCell>
        <mxCell id="CZnygBfrqToYUIKpiiIy-42" value="" style="shape=flexArrow;endArrow=classic;html=1;rounded=0;" edge="1" parent="1">
          <mxGeometry width="50" height="50" relative="1" as="geometry">
            <mxPoint x="1090" y="246" as="sourcePoint" />
            <mxPoint x="1140" y="246" as="targetPoint" />
          </mxGeometry>
        </mxCell>
        <mxCell id="CZnygBfrqToYUIKpiiIy-43" value="A场景请求成功" style="rounded=0;whiteSpace=wrap;html=1;" vertex="1" parent="1">
          <mxGeometry x="1390" y="220" width="120" height="60" as="geometry" />
        </mxCell>
        <mxCell id="CZnygBfrqToYUIKpiiIy-44" value="" style="shape=flexArrow;endArrow=classic;html=1;rounded=0;width=9;endSize=7.33;" edge="1" parent="1">
          <mxGeometry width="50" height="50" relative="1" as="geometry">
            <mxPoint x="1210" y="210" as="sourcePoint" />
            <mxPoint x="1250" y="180" as="targetPoint" />
          </mxGeometry>
        </mxCell>
        <mxCell id="CZnygBfrqToYUIKpiiIy-45" value="" style="rounded=0;whiteSpace=wrap;html=1;" vertex="1" parent="1">
          <mxGeometry x="940" y="390" width="140" height="270" as="geometry" />
        </mxCell>
        <mxCell id="CZnygBfrqToYUIKpiiIy-46" value="A场景提报任务" style="rounded=0;whiteSpace=wrap;html=1;shadow=1;" vertex="1" parent="1">
          <mxGeometry x="950" y="410" width="120" height="60" as="geometry" />
        </mxCell>
        <mxCell id="CZnygBfrqToYUIKpiiIy-47" value="B场景提报任务" style="rounded=0;whiteSpace=wrap;html=1;shadow=1;" vertex="1" parent="1">
          <mxGeometry x="950" y="500" width="120" height="60" as="geometry" />
        </mxCell>
        <mxCell id="CZnygBfrqToYUIKpiiIy-48" value="C场景提报任务" style="rounded=0;whiteSpace=wrap;html=1;shadow=1;" vertex="1" parent="1">
          <mxGeometry x="950" y="585" width="120" height="60" as="geometry" />
        </mxCell>
        <mxCell id="CZnygBfrqToYUIKpiiIy-49" value="发起数据查询" style="rounded=0;whiteSpace=wrap;html=1;" vertex="1" parent="1">
          <mxGeometry x="1180" y="490" width="120" height="60" as="geometry" />
        </mxCell>
        <mxCell id="CZnygBfrqToYUIKpiiIy-50" value="请求成功之后" style="text;html=1;align=center;verticalAlign=middle;resizable=0;points=[];autosize=1;strokeColor=none;fillColor=none;" vertex="1" parent="1">
          <mxGeometry x="1170" y="330" width="100" height="30" as="geometry" />
        </mxCell>
        <mxCell id="CZnygBfrqToYUIKpiiIy-51" value="" style="endArrow=classic;html=1;rounded=0;" edge="1" parent="1">
          <mxGeometry width="50" height="50" relative="1" as="geometry">
            <mxPoint x="1110" y="340" as="sourcePoint" />
            <mxPoint x="1110" y="390" as="targetPoint" />
          </mxGeometry>
        </mxCell>
        <mxCell id="CZnygBfrqToYUIKpiiIy-52" value="" style="endArrow=classic;html=1;rounded=0;" edge="1" parent="1">
          <mxGeometry width="50" height="50" relative="1" as="geometry">
            <mxPoint x="1370" y="340" as="sourcePoint" />
            <mxPoint x="1370" y="390" as="targetPoint" />
          </mxGeometry>
        </mxCell>
        <mxCell id="CZnygBfrqToYUIKpiiIy-53" value="" style="shape=flexArrow;endArrow=classic;html=1;rounded=0;" edge="1" parent="1">
          <mxGeometry width="50" height="50" relative="1" as="geometry">
            <mxPoint x="1100" y="524.5" as="sourcePoint" />
            <mxPoint x="1150" y="524.5" as="targetPoint" />
          </mxGeometry>
        </mxCell>
        <mxCell id="CZnygBfrqToYUIKpiiIy-54" value="资源来源归于场景B" style="rounded=0;whiteSpace=wrap;html=1;" vertex="1" parent="1">
          <mxGeometry x="1370" y="490" width="120" height="60" as="geometry" />
        </mxCell>
        <mxCell id="CZnygBfrqToYUIKpiiIy-55" value="" style="shape=flexArrow;endArrow=classic;html=1;rounded=0;" edge="1" parent="1">
          <mxGeometry width="50" height="50" relative="1" as="geometry">
            <mxPoint x="1310" y="524.5" as="sourcePoint" />
            <mxPoint x="1360" y="524.5" as="targetPoint" />
          </mxGeometry>
        </mxCell>
        <mxCell id="CZnygBfrqToYUIKpiiIy-56" value="B场景提报任务" style="rounded=0;whiteSpace=wrap;html=1;" vertex="1" parent="1">
          <mxGeometry x="1283" y="109" width="120" height="60" as="geometry" />
        </mxCell>
        <mxCell id="CZnygBfrqToYUIKpiiIy-57" value="" style="shape=flexArrow;endArrow=classic;html=1;rounded=0;" edge="1" parent="1">
          <mxGeometry width="50" height="50" relative="1" as="geometry">
            <mxPoint x="1393" y="179" as="sourcePoint" />
            <mxPoint x="1433" y="209" as="targetPoint" />
          </mxGeometry>
        </mxCell>
        <mxCell id="CZnygBfrqToYUIKpiiIy-58" value="请求未回来前" style="text;html=1;align=center;verticalAlign=middle;resizable=0;points=[];autosize=1;strokeColor=none;fillColor=none;" vertex="1" parent="1">
          <mxGeometry x="1170" y="139" width="100" height="30" as="geometry" />
        </mxCell>
        <mxCell id="CZnygBfrqToYUIKpiiIy-59" value="发起数据查询" style="rounded=0;whiteSpace=wrap;html=1;" vertex="1" parent="1">
          <mxGeometry x="400" y="500" width="120" height="60" as="geometry" />
        </mxCell>
        <mxCell id="CZnygBfrqToYUIKpiiIy-60" value="B场景提报相同任务" style="rounded=0;whiteSpace=wrap;html=1;" vertex="1" parent="1">
          <mxGeometry x="730" y="100" width="120" height="60" as="geometry" />
        </mxCell>
        <mxCell id="CZnygBfrqToYUIKpiiIy-61" value="" style="shape=flexArrow;endArrow=classic;html=1;rounded=0;width=9;endSize=7.33;" edge="1" parent="1">
          <mxGeometry width="50" height="50" relative="1" as="geometry">
            <mxPoint x="750" y="180" as="sourcePoint" />
            <mxPoint x="720" y="210" as="targetPoint" />
          </mxGeometry>
        </mxCell>
        <mxCell id="CZnygBfrqToYUIKpiiIy-62" value="任务未过期" style="text;html=1;align=center;verticalAlign=middle;resizable=0;points=[];autosize=1;strokeColor=none;fillColor=none;" vertex="1" parent="1">
          <mxGeometry x="600" y="158" width="80" height="30" as="geometry" />
        </mxCell>
        <mxCell id="CZnygBfrqToYUIKpiiIy-64" value="数据来源更新为B" style="text;html=1;align=center;verticalAlign=middle;resizable=0;points=[];autosize=1;strokeColor=none;fillColor=none;" vertex="1" parent="1">
          <mxGeometry x="1500" y="198" width="120" height="30" as="geometry" />
        </mxCell>
        <mxCell id="CZnygBfrqToYUIKpiiIy-65" value="数据来源为A" style="text;html=1;align=center;verticalAlign=middle;resizable=0;points=[];autosize=1;strokeColor=none;fillColor=none;" vertex="1" parent="1">
          <mxGeometry x="695" y="300" width="90" height="30" as="geometry" />
        </mxCell>
      </root>
    </mxGraphModel>
  </diagram>
</mxfile>
